<svg version="1.1" id="Layer_1" xmlns="http://www.w3.org/2000/svg" xmlns:xlink="http://www.w3.org/1999/xlink" x="0px" y="0px"
	 viewBox="0 0 1000 1000" style="enable-background:new 0 0 1000 1000;" xml:space="preserve">
<style type="text/css">
	.st0{fill:#0033AD;stroke:#0033AD;stroke-miterlimit:10;}
</style>
	<circle class="st0" cx="423.5" cy="329" r="67"/>
	<circle class="st0" cx="308.5" cy="583" r="67"/>
	<circle class="st0" cx="695.5" cy="583" r="67"/>
	<circle class="st0" cx="308.5" cy="429" r="67"/>
	<circle class="st0" cx="423.5" cy="681" r="67"/>
	<circle class="st0" cx="578.5" cy="329" r="67"/>
	<circle class="st0" cx="695.5" cy="429" r="67"/>
	<circle class="st0" cx="581.5" cy="681" r="67"/>
	<circle class="st0" cx="831.5" cy="562" r="44"/>
	<circle class="st0" cx="762.5" cy="315" r="44"/>
	<circle class="st0" cx="700.5" cy="741" r="44"/>
	<circle class="st0" cx="463.5" cy="811" r="44"/>
	<circle class="st0" cx="241.5" cy="706" r="44"/>
	<circle class="st0" cx="176.5" cy="449" r="44"/>
	<circle class="st0" cx="341.5" cy="227" r="44"/>
	<circle class="st0" cx="551.5" cy="208" r="44"/>
	<circle class="st0" cx="916.5" cy="509" r="29"/>
	<circle class="st0" cx="762.5" cy="215" r="29"/>
	<circle class="st0" cx="507.5" cy="125" r="29"/>
	<circle class="st0" cx="256.5" cy="183" r="29"/>
	<circle class="st0" cx="90.5" cy="500" r="29"/>
	<circle class="st0" cx="802.5" cy="756" r="29"/>
	<circle class="st0" cx="519.5" cy="890" r="29"/>
	<circle class="st0" cx="237.5" cy="799" r="29"/>
	<circle class="st0" cx="581" cy="929.5" r="14.5"/>
	<circle class="st0" cx="875" cy="748.5" r="14.5"/>
	<circle class="st0" cx="963" cy="457.5" r="14.5"/>
	<circle class="st0" cx="252" cy="865.5" r="14.5"/>
	<circle class="st0" cx="748" cy="144.5" r="14.5"/>
	<circle class="st0" cx="463" cy="70.5" r="14.5"/>
	<circle class="st0" cx="191" cy="153.5" r="14.5"/>
	<circle class="st0" cx="38" cy="555.5" r="14.5"/>
</svg>
